<svg xmlns="http://www.w3.org/2000/svg" viewBox="0 0 38 48"><defs><style>.cls-1{fill:#1e0f00;}</style></defs><title>Asset 341</title><g id="Layer_2" data-name="Layer 2"><g id="_1" data-name="1"><path class="cls-1" d="M19,20a1,1,0,0,1-.24,0l-8-2L11.24,16l7.45,1.86,7.6-7.6,1.42,1.42-8,8A1,1,0,0,1,19,20Z"/><rect class="cls-1" x="4" y="18" width="2" height="2"/><rect class="cls-1" x="18" y="32" width="2" height="2"/><rect class="cls-1" x="18" y="4" width="2" height="2"/><rect class="cls-1" x="32" y="18" width="2" height="2"/><rect class="cls-1" x="30" y="11" width="2" height="2"/><rect class="cls-1" x="30" y="25" width="2" height="2"/><rect class="cls-1" x="6" y="11" width="2" height="2"/><rect class="cls-1" x="6" y="25" width="2" height="2"/><rect class="cls-1" x="25" y="6" width="2" height="2"/><rect class="cls-1" x="11" y="6" width="2" height="2"/><rect class="cls-1" x="11" y="30" width="2" height="2"/><path class="cls-1" d="M19,48a5,5,0,0,1-5-5V39a3,3,0,0,0-6,0v2a4,4,0,0,1-8,0V19a19,19,0,0,1,38,0V36a5,5,0,0,1-10,0V32a2,2,0,0,0-4,0V43A5,5,0,0,1,19,48ZM11,34a5,5,0,0,1,5,5v4a3,3,0,0,0,6,0V32a4,4,0,0,1,8,0v4a3,3,0,0,0,6,0V19A17,17,0,0,0,2,19V41a2,2,0,0,0,4,0V39A5,5,0,0,1,11,34Z"/></g></g></svg>